<?xml version="1.0" encoding="UTF-8" standalone="no"?>
<!DOCTYPE svg PUBLIC "-//W3C//DTD SVG 1.1//EN" "http://www.w3.org/Graphics/SVG/1.1/DTD/svg11.dtd">
<svg width="100%" height="100%" viewBox="0 0 684 922" version="1.1" xmlns="http://www.w3.org/2000/svg" xmlns:xlink="http://www.w3.org/1999/xlink" xml:space="preserve" xmlns:serif="http://www.serif.com/" style="fill-rule:evenodd;clip-rule:evenodd;stroke-linecap:round;stroke-linejoin:round;stroke-miterlimit:1.5;">
    <g transform="matrix(1,0,0,1,-861.512,-969.145)">
        <g>
            <g transform="matrix(0.918511,0,0,0.929414,71.1813,71.392)">
                <path d="M1111.66,1307.85C728.248,1363.06 880.493,1723.97 1064.42,1910.15C1095.59,1941.7 1119.54,1909.77 1190.84,1911.56C1249.89,1913.04 1235.82,2003.42 1413.19,1876.18C1708.65,1664.23 1608.34,1283.19 1321.16,1294.32C1290.7,1295.5 1286.72,1319.39 1202.36,1313.78C1155.03,1310.63 1152.08,1302.03 1111.66,1307.85Z" style="fill:rgb(223,100,114);"/>
                <path d="M1109.77,1295.07C1151.42,1289.07 1154.48,1297.65 1203.23,1300.9C1258.6,1304.58 1277.05,1294.85 1292.92,1288.21C1301.6,1284.58 1309.71,1281.84 1320.65,1281.41C1531.2,1273.26 1646.75,1465.76 1590.44,1658.51C1566.7,1739.78 1512.21,1821.1 1420.87,1886.63C1376.19,1918.68 1343.28,1937.2 1318.23,1947.02C1290.38,1957.95 1271.15,1958.58 1256.22,1955.1C1243.25,1952.07 1233.34,1945.79 1223.85,1939.16C1214.16,1932.39 1205.18,1924.83 1190.51,1924.47C1156.2,1923.6 1133.3,1930.99 1115.21,1934.66C1091.67,1939.44 1074.59,1938.92 1055.07,1919.16C976.349,1839.48 903.451,1728.32 874.17,1622.09C854.056,1549.11 854.558,1478.39 886.127,1420.95C919.866,1359.55 989.297,1312.42 1109.77,1295.07ZM1113.54,1320.62C1003.97,1336.4 939.775,1377.43 909.089,1433.27C880.528,1485.24 881.184,1549.28 899.381,1615.3C927.567,1717.56 997.988,1824.42 1073.77,1901.13C1085.43,1912.93 1095.89,1912.22 1109.95,1909.37C1129.46,1905.41 1154.18,1897.72 1191.17,1898.65C1211.93,1899.17 1225.22,1908.5 1238.93,1918.07C1245.81,1922.88 1252.82,1927.77 1262.23,1929.97C1273.42,1932.58 1287.71,1931.21 1308.59,1923.02C1332.27,1913.73 1363.28,1896.03 1405.52,1865.73C1491.45,1804.09 1543,1727.8 1565.34,1651.34C1616.55,1476.05 1513.16,1299.8 1321.67,1307.22C1311.26,1307.62 1304.57,1311.43 1295.56,1315.19C1278.66,1322.24 1255.54,1330.26 1201.48,1326.66C1155.59,1323.61 1152.74,1314.98 1113.54,1320.62Z" style="fill:rgb(223,100,114);"/>
            </g>
            <g transform="matrix(0.918511,0,0,0.929414,71.1813,71.392)">
                <path d="M1352.09,1070.22C1352.92,1070.3 1354.25,1070.36 1356.38,1070.34C1370.09,1070.24 1406.08,1066.95 1433.36,1054.18C1464.65,1039.52 1467.25,1020.39 1468.03,1011.45C1470.55,1018.67 1481.57,1049.82 1430.72,1092.02C1404.34,1113.92 1370.94,1130.38 1360.48,1132.98C1357.74,1133.67 1357.21,1133.45 1355.81,1133.93C1352.12,1135.21 1346.51,1137.57 1345.71,1137.9C1337.4,1141.4 1333.61,1143.56 1330.8,1144.88C1322.9,1148.57 1318.35,1151.54 1318.09,1151.67C1317.9,1151.77 1315.65,1152.82 1312.76,1154.42C1312.19,1154.73 1311.3,1154.95 1308.43,1156.16C1307.54,1156.53 1307.09,1156.47 1303.51,1157.41C1299.77,1158.38 1299.49,1158.63 1296.84,1159.37C1293.58,1160.27 1291.1,1161.06 1285.26,1163.65C1278.53,1166.63 1269.55,1172.05 1261.17,1187.43C1250.84,1206.41 1246.92,1233.27 1245.07,1249.66C1244.86,1251.47 1244.31,1259.78 1243.94,1269.73C1243.34,1286.19 1243.28,1304.78 1243.23,1312.63C1244.31,1313.88 1246.05,1314.47 1247.13,1315.72C1247.37,1316 1247.05,1316.52 1246.78,1316.75C1245.87,1317.53 1244.85,1318.22 1243.73,1318.63C1243.08,1318.86 1238.13,1320.66 1235.25,1319.9C1232.75,1319.24 1231.46,1317.32 1231.25,1316.99C1230.76,1316.27 1230.49,1315.42 1230.2,1314.6C1229.6,1312.94 1225.13,1298.7 1224.7,1297.32C1215.27,1267.25 1213.45,1258.25 1211.51,1251.35C1202.38,1218.83 1196.52,1183.57 1205.37,1151.03C1211.41,1128.83 1222.43,1112.93 1232.16,1102.08C1236.27,1097.5 1241.89,1092.67 1242.78,1091.9C1250.34,1085.42 1255.56,1082.13 1256.74,1081.38C1263.53,1077.1 1269.7,1073.92 1273.99,1071.85C1274.58,1071.57 1275.55,1071.1 1281.63,1069.15C1282.47,1068.88 1282.8,1068.62 1288.86,1067.48C1289.29,1067.4 1293.26,1066.65 1294.29,1066.53C1299.32,1065.96 1306.4,1065.73 1307.46,1065.69C1315.35,1065.43 1318.79,1065.63 1319.77,1065.68C1336.03,1066.6 1349.75,1069.04 1352.03,1069.45L1352.09,1070.22Z" style="fill:rgb(0,161,137);"/>
                <path d="M1326.56,1108.62C1304.79,1122.59 1289.63,1130.83 1269.7,1140.08C1250.86,1148.82 1245.87,1150.84 1236.51,1168.47C1229.99,1180.73 1229.44,1187.41 1229.06,1214.9C1229.05,1215.75 1228.67,1235.44 1228.3,1245C1227.98,1253.33 1227.66,1260.11 1227.66,1260.11C1227.6,1259.53 1227.17,1254.08 1226.07,1242.3L1223.98,1218.94C1221.82,1195.3 1222.51,1187.95 1222.76,1185.27C1223.22,1180.3 1224.24,1171.48 1232.82,1157.93C1244.19,1139.98 1255.44,1139.79 1286.67,1126.92C1298.67,1121.97 1308.6,1117.58 1326.56,1108.62Z" style="fill:rgb(0,161,137);"/>
            </g>
            <g transform="matrix(0.918511,0,0,0.929414,71.1813,71.392)">
                <path d="M1181.57,1929.45C1180.72,1929.97 1180.21,1930.45 1180.14,1930.71C1180.37,1930.67 1180.87,1930.19 1181.57,1929.45ZM1165.81,1925.38C1167.22,1925.17 1171.38,1923.35 1177.34,1918.7" style="stroke:black;stroke-width:13.11px;"/>
            </g>
            <g transform="matrix(0.918511,0,0,0.929414,71.1813,71.392)">
                <path d="M1177.34,1918.7C1171.22,1917.72 1169.09,1916.01 1167.8,1915.81C1172.98,1916.18 1175.92,1916.93 1178.58,1917.72C1183.17,1914 1188.7,1908.7 1194.8,1901.33C1199.22,1916.82 1195.91,1920.46 1203.39,1932.23C1194.65,1924.21 1185.12,1927.26 1181.57,1929.45C1184.24,1926.62 1179.35,1919.03 1177.34,1918.7Z" style="stroke:black;stroke-width:13.11px;"/>
            </g>
            <g transform="matrix(0.918511,0,0,0.929414,71.1813,71.392)">
                <path d="M1233.4,1331.38C1233.55,1331.54 1233.7,1331.7 1233.85,1331.86C1233.78,1331.54 1233.71,1331.22 1233.63,1330.91C1233.58,1330.72 1233.53,1330.54 1233.49,1330.35C1233.37,1330.61 1233.26,1330.87 1233.16,1331.14C1232.82,1331.99 1232.5,1332.88 1232.21,1333.83C1232.62,1332.99 1233.02,1332.17 1233.4,1331.38ZM1233.16,1331.14C1232.82,1331.99 1232.5,1332.88 1232.21,1333.83C1232.62,1332.99 1233.02,1332.17 1233.4,1331.38C1233.32,1331.3 1233.24,1331.22 1233.16,1331.14ZM1233.63,1330.91C1233.58,1330.72 1233.53,1330.54 1233.49,1330.35C1233.37,1330.61 1233.26,1330.87 1233.16,1331.14C1233.24,1331.22 1233.32,1331.3 1233.4,1331.38C1233.47,1331.22 1233.55,1331.07 1233.63,1330.91ZM1233.16,1331.14C1232.82,1331.99 1232.5,1332.88 1232.21,1333.83C1232.62,1332.99 1233.02,1332.17 1233.4,1331.38C1233.32,1331.3 1233.24,1331.22 1233.16,1331.14ZM1233.16,1331.14C1232.82,1331.99 1232.5,1332.88 1232.21,1333.83C1232.62,1332.99 1233.02,1332.17 1233.4,1331.38C1233.32,1331.3 1233.24,1331.22 1233.16,1331.14ZM1233.4,1331.38C1233.55,1331.54 1233.7,1331.7 1233.85,1331.86C1233.78,1331.54 1233.71,1331.22 1233.63,1330.91C1233.55,1331.07 1233.47,1331.22 1233.4,1331.38Z" style="stroke:black;stroke-width:13.11px;"/>
            </g>
            <g transform="matrix(0.918511,0,0,0.929414,71.1813,71.392)">
                <path d="M1233.16,1331.14C1225.61,1323.58 1208.71,1316.16 1203.39,1307.57C1203.39,1307.57 1204.03,1302.92 1203.39,1301.86C1219.52,1301.09 1250.91,1302.54 1266.79,1302.84C1262.38,1307.38 1250.84,1310.32 1243.7,1316.46C1242.43,1317.85 1241.26,1319.13 1240.16,1320.38C1238.79,1321.94 1237.55,1323.45 1236.43,1325.06C1235.6,1326.81 1234.67,1328.76 1233.63,1330.91C1232.28,1333.69 1232.26,1334.01 1232.21,1333.83C1232.1,1334.09 1233.26,1330.87 1233.16,1331.14Z" style="stroke:black;stroke-width:13.11px;"/>
            </g>
            <path d="M1104.39,1328.89C1104.17,1329.07 1104.15,1329.02 1103.87,1329.03C1102.36,1329.09 1094.34,1329.42 1084.97,1330.6C1081.24,1331.07 1072.51,1332.16 1057.99,1336.03C1056.59,1336.4 1050.32,1338.07 1040.74,1341.51C1037.35,1342.73 1033.99,1343.95 1024.06,1348.4C1019.18,1350.6 1015.9,1352.24 1007.54,1356.84C1005.69,1357.85 991.615,1365.74 980.899,1373.48C980.099,1374.05 972.851,1378.85 962.499,1388.33C961.152,1389.56 954.178,1395.94 946.899,1404.99C944.427,1408.06 937.043,1417.57 931.383,1429.4C917.038,1459.4 922.601,1483.94 922.516,1484.69C922.468,1485.12 922.589,1485.6 922.367,1485.97C922.359,1485.99 921.254,1486.78 921.245,1486.78C920.819,1486.71 920.337,1486.8 919.968,1486.57C919.159,1486.09 919.303,1485.94 918.995,1485.05C910.977,1461.83 914.443,1441.79 915.601,1435.48C919.29,1415.4 927.516,1400.97 929.684,1397.13C932.087,1392.87 937.989,1382.59 949.781,1369.7C953.826,1365.28 959.284,1360.4 960.146,1359.63C963.853,1356.32 967.555,1353.19 974.005,1348.63C974.499,1348.29 979.681,1344.75 983.615,1342.52C992.696,1337.36 999.46,1334.45 1008.09,1331.51C1018.62,1327.92 1024.65,1326.8 1026.04,1326.51C1038.41,1323.91 1046.4,1323.41 1051.04,1323.15C1058.17,1322.74 1062.79,1322.88 1063.81,1322.9C1084.55,1323.51 1098.83,1327.35 1100.44,1327.75C1101.72,1328.07 1102.79,1328.35 1103,1328.41C1104.38,1328.77 1104.48,1328.82 1104.39,1328.89Z" style="fill:rgb(229,153,181);"/>
        </g>
    </g>
</svg>
